<svg id="visual" viewBox="0 0 960 540" width="960" height="540" xmlns="http://www.w3.org/2000/svg" xmlns:xlink="http://www.w3.org/1999/xlink" version="1.1"><rect x="0" y="0" width="960" height="540" fill="#001220"></rect><path d="M0 464L16 466.2C32 468.3 64 472.7 96 476C128 479.3 160 481.7 192 480.3C224 479 256 474 288 473C320 472 352 475 384 474.8C416 474.7 448 471.3 480 470C512 468.7 544 469.3 576 473.2C608 477 640 484 672 483.3C704 482.7 736 474.3 768 470C800 465.7 832 465.3 864 469.2C896 473 928 481 944 485L960 489L960 541L944 541C928 541 896 541 864 541C832 541 800 541 768 541C736 541 704 541 672 541C640 541 608 541 576 541C544 541 512 541 480 541C448 541 416 541 384 541C352 541 320 541 288 541C256 541 224 541 192 541C160 541 128 541 96 541C64 541 32 541 16 541L0 541Z" fill="#76fa69"></path><path d="M0 480L16 482C32 484 64 488 96 490C128 492 160 492 192 489.3C224 486.7 256 481.3 288 479.7C320 478 352 480 384 480.8C416 481.7 448 481.3 480 483C512 484.7 544 488.3 576 492C608 495.7 640 499.3 672 499C704 498.7 736 494.3 768 488.5C800 482.7 832 475.3 864 471.8C896 468.3 928 468.7 944 468.8L960 469L960 541L944 541C928 541 896 541 864 541C832 541 800 541 768 541C736 541 704 541 672 541C640 541 608 541 576 541C544 541 512 541 480 541C448 541 416 541 384 541C352 541 320 541 288 541C256 541 224 541 192 541C160 541 128 541 96 541C64 541 32 541 16 541L0 541Z" fill="#00e6e1"></path><path d="M0 499L16 499.5C32 500 64 501 96 501.8C128 502.7 160 503.3 192 501C224 498.7 256 493.3 288 493.8C320 494.3 352 500.7 384 503.7C416 506.7 448 506.3 480 503.2C512 500 544 494 576 493.5C608 493 640 498 672 497.8C704 497.7 736 492.3 768 489.8C800 487.3 832 487.7 864 491.3C896 495 928 502 944 505.5L960 509L960 541L944 541C928 541 896 541 864 541C832 541 800 541 768 541C736 541 704 541 672 541C640 541 608 541 576 541C544 541 512 541 480 541C448 541 416 541 384 541C352 541 320 541 288 541C256 541 224 541 192 541C160 541 128 541 96 541C64 541 32 541 16 541L0 541Z" fill="#00beff"></path><path d="M0 508L16 507.5C32 507 64 506 96 507.5C128 509 160 513 192 512C224 511 256 505 288 502.3C320 499.7 352 500.3 384 502.7C416 505 448 509 480 511C512 513 544 513 576 512.3C608 511.7 640 510.3 672 510.7C704 511 736 513 768 511.7C800 510.3 832 505.7 864 505.3C896 505 928 509 944 511L960 513L960 541L944 541C928 541 896 541 864 541C832 541 800 541 768 541C736 541 704 541 672 541C640 541 608 541 576 541C544 541 512 541 480 541C448 541 416 541 384 541C352 541 320 541 288 541C256 541 224 541 192 541C160 541 128 541 96 541C64 541 32 541 16 541L0 541Z" fill="#0087ff"></path><path d="M0 515L16 516.3C32 517.7 64 520.3 96 521.8C128 523.3 160 523.7 192 522.7C224 521.7 256 519.3 288 518.7C320 518 352 519 384 518.8C416 518.7 448 517.3 480 517.2C512 517 544 518 576 518.2C608 518.3 640 517.7 672 516.8C704 516 736 515 768 515.2C800 515.3 832 516.7 864 517.5C896 518.3 928 518.7 944 518.8L960 519L960 541L944 541C928 541 896 541 864 541C832 541 800 541 768 541C736 541 704 541 672 541C640 541 608 541 576 541C544 541 512 541 480 541C448 541 416 541 384 541C352 541 320 541 288 541C256 541 224 541 192 541C160 541 128 541 96 541C64 541 32 541 16 541L0 541Z" fill="#6600ff"></path></svg>