<svg id="visual" viewBox="0 0 960 540" width="960" height="540" xmlns="http://www.w3.org/2000/svg" xmlns:xlink="http://www.w3.org/1999/xlink" version="1.1"><path d="M0 44L80 57.5C160 71 320 98 480 117.8C640 137.7 800 150.3 880 156.7L960 163L960 0L880 0C800 0 640 0 480 0C320 0 160 0 80 0L0 0Z" fill="#000e22"></path><path d="M0 55L80 84.7C160 114.3 320 173.7 480 202.5C640 231.3 800 229.7 880 228.8L960 228L960 161L880 154.7C800 148.3 640 135.7 480 115.8C320 96 160 69 80 55.5L0 42Z" fill="#001842"></path><path d="M0 395L80 387.8C160 380.7 320 366.3 480 348.3C640 330.3 800 308.7 880 297.8L960 287L960 226L880 226.8C800 227.7 640 229.3 480 200.5C320 171.7 160 112.3 80 82.7L0 53Z" fill="#001b61"></path><path d="M0 417L80 409.8C160 402.7 320 388.3 480 383.8C640 379.3 800 384.7 880 387.3L960 390L960 285L880 295.8C800 306.7 640 328.3 480 346.3C320 364.3 160 378.7 80 385.8L0 393Z" fill="#19177d"></path><path d="M0 541L80 541C160 541 320 541 480 541C640 541 800 541 880 541L960 541L960 388L880 385.3C800 382.7 640 377.3 480 381.8C320 386.3 160 400.7 80 407.8L0 415Z" fill="#3c0095"></path></svg>